<svg xmlns="http://www.w3.org/2000/svg" viewBox="0 0 360 360"><g id="Layer_2" data-name="Layer 2"><g id="Layer_1-2" data-name="Layer 1"><path d="M360,53V307a23.61,23.61,0,0,0-.89,2.78c-3.76,20.29-14.82,35.21-33.38,44.13-5.86,2.82-12.46,4.1-18.73,6.09H54a24.43,24.43,0,0,0-2.87-.79c-18.49-2.85-32.91-12.28-42.22-28.29C4.7,323.67,2.9,315,0,307V53a20.39,20.39,0,0,0,.89-2.78C3.58,34.26,11.6,21.58,24.4,11.8,32.89,5.31,42.74,2.18,53,0H307a13.35,13.35,0,0,0,2.31.84c24,4.4,39.83,18.28,47.81,41.21C358.36,45.61,359.06,49.35,360,53ZM124.34,219.17c17.45,0,34.43.06,51.42-.06,2.81,0,3.57,1.28,4.3,3.64,4.69,15,9.55,30,14.38,45.06h33.37c-.37-1.47-.61-2.76-1-4q-16.65-51.15-33.31-102.3c-6.68-20.51-13.31-41-20.15-61.5-.53-1.57-2.57-3.7-4-3.74-12.31-.29-24.63-.17-37.17-.17l-55,171.67h32.35C114.48,251.58,119.36,235.55,124.34,219.17Zm125.53-75.09V267.74h30.9V144.08Zm-2-35.17c0,10.1,7.09,17.06,17.47,17,10.23,0,17.66-7.22,17.59-17.06-.06-9.56-7.44-16.72-17.36-16.85C255.3,91.9,247.88,99,247.83,108.91Z"/><path d="M173.08,195.34H129.89l21.22-72.66Z"/></g></g></svg>