<svg xmlns="http://www.w3.org/2000/svg" viewBox="0 0 360 360"><g id="Layer_2" data-name="Layer 2"><g id="Layer_1-2" data-name="Layer 1"><path d="M142.8,107A40,40,0,0,0,125,102.81c-4.49-.1-9,.1-13.48.38-2.63.16-5.23.73-7.9,1.13v58.91c1,.17,1.86.36,2.76.48a84.53,84.53,0,0,0,18.81.31,43.06,43.06,0,0,0,16-4.54,28.07,28.07,0,0,0,14.5-17.25,35.23,35.23,0,0,0,1.22-14.37C155.81,118.47,151.25,111.43,142.8,107Z"/><path d="M298.21,0H61.79A62,62,0,0,0,0,61.79V298.21A62,62,0,0,0,61.79,360H298.21A62,62,0,0,0,360,298.21V61.79A62,62,0,0,0,298.21,0ZM195.93,159.82c-5.07,11.89-13.59,20.72-24.73,27.12a87.63,87.63,0,0,1-28.41,9.95,143.22,143.22,0,0,1-34,1.71c-1.71-.11-3.42-.33-5.34-.52V269H59V72.94c2-.32,4-.68,5.94-1,9.73-1.3,19.49-2.11,29.29-2.57,10.56-.5,21.11-.79,31.67-.5,11.8.33,23.46,1.69,34.75,5.41,9.57,3.16,18.12,8,25.15,15.31A55,55,0,0,1,200,116.3,70.1,70.1,0,0,1,195.93,159.82Zm107,93.55A44.79,44.79,0,0,1,287.22,265a76,76,0,0,1-24,6.39,119.82,119.82,0,0,1-26.77-.07c-10.36-1.16-20.44-3.46-29.95-7.91-.87-.41-1.71-.89-2.65-1.38,2.64-10.67,5.25-21.22,7.89-31.92.48.19.84.3,1.17.47a91.14,91.14,0,0,0,31.51,9.86,41.19,41.19,0,0,0,15.13-.6,21,21,0,0,0,4.21-1.52c4.59-2.26,6.3-6.35,5.84-11.15a10.16,10.16,0,0,0-5-7.89,47.13,47.13,0,0,0-7-3.68c-3.94-1.61-8-3-12-4.43-8.39-3.06-16.35-6.93-23.31-12.62-6.68-5.46-11.7-12.09-13.82-20.61a40.57,40.57,0,0,1,1.14-22.84c3.48-10.6,10.4-18.47,19.84-24.23a61.59,61.59,0,0,1,23.66-8.29,101.16,101.16,0,0,1,47.9,4.82c2,.67,3.82,1.55,5.86,2.39-2.66,10.36-5.28,20.55-7.93,30.88-.46-.17-.83-.26-1.17-.42a71.14,71.14,0,0,0-25.92-7.47,32.89,32.89,0,0,0-12.53.91,13.79,13.79,0,0,0-6.29,3.78c-2.94,3.15-4,10.16.86,14.14a34.31,34.31,0,0,0,9.13,5.19c4,1.62,8.07,3.11,12.12,4.59a85.77,85.77,0,0,1,20,9.83c7.18,5,12.91,11.28,15.54,19.76C315.45,226.36,313.53,240.71,303,253.37Z"/></g></g></svg>