<?xml version="1.0" standalone="no"?>
<!DOCTYPE svg PUBLIC "-//W3C//DTD SVG 1.1//EN" "http://www.w3.org/Graphics/SVG/1.1/DTD/svg11.dtd">
<svg xmlns="http://www.w3.org/2000/svg" id="Logos_All" data-name="Logos All" viewBox="0 0 236.98 103.08" width="236.97999572753906" height="103.08000183105469">
  <defs>
    <style>
      .cls-1 {
        fill: #231f20;
        stroke-width: 0px;
      }
    </style>
  </defs>
  <g>
    <path class="cls-1" d="m.03,86.83h12.85c4.64,0,5.37,1.53,5.37,4.55v1.31c0,2.26-1.29,2.89-2.95,3.04v.05c2.22.4,2.75,1.55,2.75,3.02v4.1h-2.04v-3.53c0-2.51-1.22-2.82-3.2-2.82H2.2v6.35H.03v-16.07Zm12.61,7.94c2.42,0,3.44-.64,3.44-2.33v-1.46c0-1.8-.78-2.38-3.97-2.38H2.2v6.17h10.43Z"/>
    <path class="cls-1" d="m32.78,92.67c0-4.06,1.38-6.01,5.73-6.01h9.25c4.35,0,5.73,1.95,5.73,6.01v4.39c0,4.06-1.37,6.01-5.73,6.01h-9.25c-4.35,0-5.73-1.95-5.73-6.01v-4.39Zm18.53-.82c0-2.79-1.69-3.42-3.77-3.42h-8.81c-2.09,0-3.77.62-3.77,3.42v6.04c0,2.8,1.69,3.42,3.77,3.42h8.81c2.09,0,3.77-.62,3.77-3.42v-6.04Z"/>
    <path class="cls-1" d="m68.46,86.83h13.71c3.33,0,4.26,1.73,4.26,3.57v1.38c0,1.15-.64,2.33-2.6,2.53v.09c1.71.09,3.22.73,3.22,3.17v1.91c0,2.24-2,3.42-4.66,3.42h-13.94v-16.07Zm15.8,3.46c0-1.46-1.62-1.69-2.29-1.69h-11.34v5.13h11.23c1.18,0,2.4-.38,2.4-1.98v-1.46Zm.62,7.52c0-2-1.11-2.31-3.08-2.31h-11.16v5.61h11.49c2.02,0,2.75-.73,2.75-2.15v-1.15Z"/>
    <path class="cls-1" d="m101.63,92.67c0-4.06,1.38-6.01,5.73-6.01h9.25c4.35,0,5.72,1.95,5.72,6.01v4.39c0,4.06-1.38,6.01-5.72,6.01h-9.25c-4.35,0-5.73-1.95-5.73-6.01v-4.39Zm18.53-.82c0-2.79-1.69-3.42-3.77-3.42h-8.81c-2.09,0-3.77.62-3.77,3.42v6.04c0,2.8,1.69,3.42,3.77,3.42h8.81c2.09,0,3.77-.62,3.77-3.42v-6.04Z"/>
    <path class="cls-1" d="m143.68,88.61h-8.12v-1.78h18.42v1.78h-8.12v14.29h-2.17v-14.29Z"/>
    <path class="cls-1" d="m167.68,86.83h2.18v16.07h-2.18v-16.07Z"/>
    <path class="cls-1" d="m184.9,92.67c0-4.06,1.38-6.01,5.73-6.01h8.32c3.95,0,5.04,1.84,5.04,3.99v1.38h-1.91v-.73c0-2.73-1.69-2.86-3.68-2.86h-7.54c-2.09,0-3.77.62-3.77,3.42v6.04c0,2.8,1.69,3.42,3.77,3.42h7.61c2.93,0,3.77-.62,3.77-2.8v-1h2.04v1.09c0,2.91-.93,4.48-5.44,4.48h-8.21c-4.35,0-5.73-1.95-5.73-6.01v-4.39Z"/>
    <path class="cls-1" d="m218.52,97.84h2.04v1.13c0,1.57.84,2.33,3.55,2.33h6.75c3.15,0,4.08-.67,4.08-2.97,0-2.02-.8-2.53-3.51-2.53h-4.13c-6.64,0-8.81-.4-8.81-4.66,0-3.66,2.18-4.48,6.66-4.48h4.68c5.39,0,6.75,1.38,6.75,4.24v.55h-2.04c-.04-2.55-.31-3.02-6.01-3.02h-2.31c-4.19,0-5.68.22-5.68,2.86,0,1.91.6,2.55,4,2.55h6.43c4.24,0,6.01,1.22,6.01,3.95v1.04c0,3.95-3.24,4.24-6.46,4.24h-6.03c-3.17,0-5.97-.56-5.97-4.06v-1.18Z"/>
  </g>
  <path class="cls-1" d="m214.88,30.1c-.18,0-.35.06-.5.16,0,0-19.69,13.69-20.64,14.35-.95-.66-20.74-14.35-20.74-14.35-.15-.1-.32-.16-.5-.16h-18.22c-.38,0-.72.25-.84.62-.03.09-.04.17-.04.26,0,.28.14.56.38.72,0,0,27.53,18.63,29.53,19.99-2.01,1.35-32.04,21.46-32.04,21.46-.25.17-.39.44-.39.72,0,.09.01.17.04.25.11.37.45.62.83.62h18.62c.18,0,.35-.05.5-.16,0,0,21.9-15.16,22.85-15.82.95.67,22.65,15.82,22.65,15.82.15.1.32.16.5.16h18.32c.38,0,.72-.25.83-.62.03-.08.04-.17.04-.26,0-.28-.14-.56-.39-.72,0,0-29.83-20.11-31.84-21.46,2-1.35,29.63-19.99,29.63-19.99.25-.16.38-.44.38-.72,0-.09-.01-.17-.04-.25-.11-.37-.45-.62-.83-.62h-18.12Z"/>
  <path class="cls-1" d="m71.63,30.1c-.26,0-.51.12-.68.32,0,0-26,31.8-27.3,33.39-1.28-1.6-26.8-33.38-26.8-33.38-.17-.21-.42-.33-.68-.33H.87c-.34,0-.65.2-.79.5-.14.31-.1.67.12.93l35.33,42.9c.16.2.41.32.67.32h14.9c.26,0,.5-.11.67-.31l35.83-42.89c.22-.26.27-.62.12-.93-.14-.31-.45-.5-.79-.5h-15.3Z"/>
  <path class="cls-1" d="m95.81,30.09c-1.75-3.22-2.81-7.49-2.81-12.11,0-9.77,4.89-17.98,10.85-17.98h37.7c2.01,0,3.66,2.73,3.66,6.06s-1.65,6.06-3.66,6.06h-37.7c-2.01,0-3.54,2.73-3.54,5.86s1.42,6.15,3.54,6.15h37.7c2.01,0,3.66,2.69,3.66,5.96h0c0,3.28-1.65,5.97-3.66,5.97h-37.7c-2.12,0-3.54,3.03-3.54,6.15s1.54,5.86,3.54,5.86h37.7c2.01,0,3.66,2.73,3.66,6.06s-1.65,6.06-3.66,6.06h-37.7c-5.96,0-10.85-8.21-10.85-17.98,0-4.63,1.06-8.89,2.81-12.12h0Z"/>
  <path class="cls-1" d="m233.18,62.45c.49,0,.97.13,1.45.38.47.26.83.62,1.1,1.09.26.47.4.96.4,1.48s-.13.99-.39,1.46c-.26.47-.62.83-1.09,1.09-.47.26-.95.39-1.46.39s-1-.13-1.46-.39c-.47-.26-.83-.62-1.09-1.09-.26-.47-.39-.95-.39-1.46s.13-1,.39-1.48c.26-.47.63-.83,1.1-1.09.47-.25.95-.38,1.45-.38Zm0,.49c-.41,0-.82.11-1.21.32-.39.21-.7.51-.92.91-.22.39-.33.8-.33,1.23s.11.83.33,1.22c.22.39.52.69.91.91.39.22.8.33,1.22.33s.83-.11,1.22-.33c.39-.22.69-.52.91-.91.22-.39.32-.79.32-1.22s-.11-.84-.33-1.23c-.22-.39-.53-.7-.92-.91-.39-.21-.79-.32-1.2-.32Zm-1.29,4.08v-3.16h1.09c.37,0,.64.03.81.09.17.06.3.16.4.31.1.15.15.3.15.46,0,.23-.08.43-.25.6-.17.17-.38.27-.66.29.11.05.2.1.27.17.13.13.28.33.47.63l.39.62h-.62l-.28-.5c-.22-.39-.4-.64-.54-.74-.09-.07-.23-.11-.41-.11h-.3v1.34h-.51Zm.51-1.78h.62c.3,0,.5-.04.61-.13.11-.09.16-.21.16-.35,0-.09-.02-.18-.08-.25-.05-.07-.13-.13-.22-.17-.09-.04-.26-.05-.51-.05h-.58v.95Z"/>
</svg>