<svg xmlns="http://www.w3.org/2000/svg" xmlns:xlink="http://www.w3.org/1999/xlink" viewBox="0 0 360 360"><defs><style>.cls-1{fill:none;}.cls-2{clip-path:url(#clip-path);}.cls-3{fill:#333;}.cls-4{fill:#1a1a1a;}</style><clipPath id="clip-path" transform="translate(0 0)"><rect class="cls-1" width="360" height="360" rx="62.07"/></clipPath></defs><g id="Layer_2" data-name="Layer 2"><g id="Layer_1-2" data-name="Layer 1"><g class="cls-2"><path class="cls-3" d="M360,12V73.15c-10.54,0-21.09.13-31.63-.08a9.18,9.18,0,0,0-8,3.84q-30,37-60.23,73.75-39,47.75-78,95.5c-1.84,2.26-2.84,3-5.07.15-12.25-15.54-24.72-30.91-37.11-46.35Q90.25,138.18,40.68,76.37a8,8,0,0,0-6.9-3.29c-11.25.14-22.49.07-33.74.07V11.29C1.56,10.66,1.6,9,2.2,7.85,4.16,4,8.13,2.48,11.29,0H348A21.3,21.3,0,0,1,360,12ZM210.88,52.66c-6.91,0-13.82.08-20.73,0-2.31,0-3.64.62-4.47,2.91-2.63,7.26-5.49,14.45-8.21,21.68-1.34,3.57-1.2,3.79,2.53,3.8,9.84,0,19.68,0,29.52,0,1.42,0,3.08,0,3.27,1.84s-1.13,2.79-2.71,3.18a14.33,14.33,0,0,1-3.47.3c-8.2,0-16.41-.08-24.61,0-9.69.14-7-1.63-11,7.69-1.19,2.81-.67,3.68,2.43,3.65,11.36-.12,22.73,0,34.09-.06,10.31,0,15.8-4,19.22-13.66,2.86-8.1-1.73-14.71-10.34-14.8-6.21-.06-12.42,0-18.63,0-3,0-3.41-.84-2.12-3.57.79-1.66,2.13-1.59,3.54-1.6l23.19,0c8.7,0,8.63,0,11.62-8.24.85-2.32.5-3.13-2.07-3.09C224.94,52.72,217.91,52.66,210.88,52.66Zm-79.53,0h-1.71c-4.75,0-4.78,0-3.07,4.54,3.94,10.39,7.93,20.76,11.88,31.15,3.34,8.78,3.33,8.68,12.64,8.75,2.52,0,3.79-1,4.93-3,3.71-6.64,7.56-13.2,11.36-19.79,3.44-6,6.9-12,10.33-18,2-3.5,1.89-3.67-2.25-3.7-2.22,0-4.46.16-6.67-.05-2.81-.27-4.45.79-5.81,3.3-3.87,7.08-8,14-12.07,21-.43.73-.57,2-1.8,1.79-.89-.17-1-1.24-1.24-2-2.32-6-4.6-12-6.92-18C138.22,51.7,140,52.85,131.35,52.7Z" transform="translate(0 0)"/><path d="M0,73.15c11.25,0,22.49.07,33.74-.07a8,8,0,0,1,6.9,3.29Q90.21,138.2,139.85,200c12.39,15.44,24.86,30.81,37.11,46.35,2.23,2.83,3.23,2.11,5.07-.15q39-47.79,78-95.5,30.15-36.85,60.23-73.75a9.18,9.18,0,0,1,8-3.84c10.54.21,21.09.08,31.63.08v66.78c-.8.86-1.63,1.68-2.38,2.58q-58.47,70-116.94,139.89c-6.91,8.24-13.29,16.94-21,24.45-1.51-.11-3-.3-4.54-.3-23.87,0-47.74-.1-71.61,0a10.22,10.22,0,0,1-8.65-4.23q-28.45-34.77-57-69.44-31.09-37.8-62.28-75.54c-5.07-6.12-9.83-12.5-15.45-18.15Z" transform="translate(0 0)"/><path class="cls-3" d="M219.59,306.85c7.76-7.51,14.14-16.21,21-24.45q58.55-69.87,116.94-139.89c.75-.9,1.58-1.72,2.38-2.58V348.71c-2.78,5-6.47,9.09-11.95,11.25H175.78c11.78-14,23.62-28,35.29-42.1C214,314.29,217.51,311.1,219.59,306.85Z" transform="translate(0 0)"/><path class="cls-4" d="M219.59,306.85c-2.08,4.25-5.57,7.44-8.52,11C199.4,332,187.56,345.94,175.78,360H94.94c-4.34-3.8-7.56-8.58-11.2-13Q49.57,305.61,15.48,264.2C10.42,258.09,5.81,251.58,0,246.08V139.23c5.62,5.65,10.38,12,15.45,18.15q31.23,37.69,62.28,75.54,28.55,34.7,57,69.44a10.22,10.22,0,0,0,8.65,4.23c23.87-.14,47.74-.07,71.61,0C216.57,306.55,218.08,306.74,219.59,306.85Z" transform="translate(0 0)"/><path class="cls-3" d="M0,246.08c5.77,5.5,10.38,12,15.44,18.12Q49.69,305.51,83.74,347c3.64,4.4,6.86,9.18,11.2,13H11.29c-2.6-2.24-6.07-3.3-8.15-6.32C2,352,1.87,349.84,0,348.71Z" transform="translate(0 0)"/><path d="M360,12A21.3,21.3,0,0,0,348,0L360,.22Z" transform="translate(0 0)"/><path d="M348,360c5.48-2.16,9.17-6.22,11.95-11.25,0,3.28-.08,6.56,0,9.84,0,1.23-.22,1.48-1.45,1.45C355,359.89,351.52,360,348,360Z" transform="translate(0 0)"/><path d="M0,348.71c1.83,1.13,2,3.32,3.1,4.93,2.08,3,5.55,4.08,8.15,6.32-3.28,0-6.56-.08-9.84,0C.22,360,0,359.78,0,358.55.12,355.27,0,352,0,348.71Z" transform="translate(0 0)"/><path d="M11.29,0C8.13,2.48,4.16,4,2.2,7.85,1.6,9,1.56,10.66,0,11.29,0,8,.12,4.73,0,1.45,0,.22.22,0,1.45,0,4.73.12,8,0,11.29,0Z" transform="translate(0 0)"/><path d="M210.88,52.66c7,0,14.06.06,21.09,0,2.57,0,2.92.77,2.07,3.09-3,8.22-2.92,8.24-11.62,8.24l-23.19,0c-1.41,0-2.75-.06-3.54,1.6-1.29,2.73-.92,3.55,2.12,3.57,6.21.06,12.42,0,18.63,0,8.61.09,13.2,6.7,10.34,14.8-3.42,9.69-8.91,13.63-19.22,13.66-11.36,0-22.73-.06-34.09.06-3.1,0-3.62-.84-2.43-3.65,3.93-9.32,1.27-7.55,11-7.69,8.2-.11,16.41,0,24.61,0a14.33,14.33,0,0,0,3.47-.3c1.58-.39,2.89-1.4,2.71-3.18S210.94,81,209.52,81c-9.84,0-19.68,0-29.52,0-3.73,0-3.87-.23-2.53-3.8,2.72-7.23,5.58-14.42,8.21-21.68.83-2.29,2.16-3,4.47-2.91C197.06,52.74,204,52.66,210.88,52.66Z" transform="translate(0 0)"/><path d="M131.35,52.7c8.65.15,6.87-1,9.6,6,2.32,6,4.6,12,6.92,18,.28.74.35,1.81,1.24,2,1.23.25,1.37-1.06,1.8-1.79C155,70,159.11,63,163,56c1.36-2.51,3-3.57,5.81-3.3,2.21.21,4.45,0,6.67.05,4.14,0,4.25.2,2.25,3.7-3.43,6-6.89,12-10.33,18C163.58,81,159.73,87.51,156,94.15c-1.14,2-2.41,3-4.93,3-9.31-.07-9.3,0-12.64-8.75C134.5,78,130.51,67.63,126.57,57.24c-1.71-4.51-1.68-4.52,3.07-4.54Z" transform="translate(0 0)"/></g></g></g></svg>