<svg xmlns="http://www.w3.org/2000/svg" xmlns:xlink="http://www.w3.org/1999/xlink" viewBox="0 0 360 359.63"><defs><style>.cls-1{fill:none;}.cls-2{clip-path:url(#clip-path);}.cls-3{fill:#333;}.cls-4{fill:#1a1a1a;}</style><clipPath id="clip-path" transform="translate(0 -0.37)"><rect class="cls-1" width="360" height="360" rx="62.07"/></clipPath></defs><g id="Layer_2" data-name="Layer 2"><g id="Layer_1-2" data-name="Layer 1"><g class="cls-2"><path class="cls-3" d="M.21,73.42C.15,52.3,0,31.18.08,10.07.11,4.41,4,.78,9.6.41c1.17-.08,2.36,0,3.54,0H346.82C357,.39,360,3.38,360,13.58q0,29.91-.14,59.81c-10.64,0-21.29.09-31.93,0a8.61,8.61,0,0,0-7.55,3.52q-69.32,85-138.75,169.89c-2,2.45-2.85,1.86-4.47-.16Q135.05,194,92.87,141.51,67.07,109.37,41.31,77.2A9.32,9.32,0,0,0,33,73.32C22.09,73.54,11.15,73.41.21,73.42ZM252.64,79.2c0-1.77.12-3.55,0-5.31-.87-10.6-7.21-18.84-16.68-21.77-10.64-3.29-21.91-.47-28.19,7.41s-7,17-5.57,26.42a25.7,25.7,0,0,0,39.73,17.51C250.56,97.7,252.86,88.94,252.64,79.2Zm-55,26.45c-3.23-6.79-6.26-13.33-9.45-19.79-.86-1.75-.89-2.77.87-4,6.24-4.33,6.88-10.73,5.61-17.41S188.37,54.46,182,53c-7.3-1.64-14.73-.32-22.07-.87-3.75-.28-5,.64-5,4.75.3,14,.12,28.05.12,42.08,0,7.52,0,7.41,7.68,7.28,2.67,0,3.74-.88,3.61-3.58-.15-3.24-.08-6.5,0-9.74.15-8-1.37-6.83,7-7.07,2.39-.07,3.8.52,4.64,2.92,1,2.91,2.46,5.68,3.73,8.5,4.33,9.6,4.34,9.6,15,8.77A6.27,6.27,0,0,0,197.62,105.65Zm-91-26.83c0,7.38.25,14.77-.1,22.12-.21,4.36,1.25,5.61,5.48,5.36,6.7-.4,5.8.63,5.88-6,0-1.48,0-2.95,0-4.43,0-9,0-9.06,8.86-9.07,5.28,0,10.32-.85,14.54-4.25,5.26-4.22,7.23-12.43,4.68-19.85S137.14,53,130.28,52.44c-6.6-.53-13.28,0-19.9-.29-3.29-.13-3.93,1.16-3.86,4.1C106.7,63.77,106.58,71.3,106.58,78.82Z" transform="translate(0 -0.37)"/><path d="M.21,73.42c10.94,0,21.88.12,32.81-.1a9.32,9.32,0,0,1,8.29,3.88Q67,109.44,92.87,141.51,135,194,177.14,246.6c1.62,2,2.47,2.61,4.47.16q69.31-85,138.75-169.89a8.61,8.61,0,0,1,7.55-3.52c10.64.13,21.29.05,31.93,0q0,33.61,0,67.23c-8.3,9.78-16.66,19.51-24.89,29.36q-46.15,55.19-92.26,110.4c-7.48,8.92-14.51,18.24-22.72,26.55-25.71-.05-51.42-.16-77.13-.1-3.08,0-5.34-.81-7.29-3.19q-17.65-21.56-35.41-43-21.34-25.93-42.66-51.9c-13.3-16.15-26.53-32.36-40-48.4C12,153.8,7.23,146.69.9,140.88l-.7-.81Q.2,106.74.21,73.42Z" transform="translate(0 -0.37)"/><path class="cls-3" d="M220,306.93c8.21-8.31,15.24-17.63,22.72-26.55q46.23-55.11,92.26-110.4c8.23-9.85,16.59-19.58,24.89-29.36.05,1,.15,2.06.15,3.09q0,102.14,0,204.25c0,3.18-.3,6.23-2.46,8.73a9.3,9.3,0,0,1-7.41,3.31q-86.85,0-173.69,0a6.44,6.44,0,0,1-.88-.13,47.88,47.88,0,0,0,4.12-3.93c8.32-9.9,16.65-19.8,24.81-29.84C209.67,319.71,215.59,314,220,306.93Z" transform="translate(0 -0.37)"/><path class="cls-4" d="M220,306.93c-4.37,7-10.29,12.78-15.47,19.14-8.16,10-16.49,19.94-24.81,29.84a47.88,47.88,0,0,1-4.12,3.93H94.74a37.56,37.56,0,0,1-3.88-3.56c-9.07-11-18.07-22.06-27.11-33.08q-18-22-36.11-43.95c-9.08-11-18.27-21.89-27.41-32.83C.16,234.63,0,222.84,0,211.05q0-35.15.13-70.31a2.06,2.06,0,0,0,.73.14C7.23,146.69,12,153.8,17.51,160.34c13.43,16,26.66,32.25,40,48.4q21.35,25.95,42.66,51.9,17.7,21.51,35.41,43c2,2.38,4.21,3.2,7.29,3.19C168.54,306.77,194.25,306.88,220,306.93Z" transform="translate(0 -0.37)"/><path class="cls-3" d="M.23,246.42c9.14,10.94,18.33,21.84,27.41,32.83q18.12,21.92,36.11,43.95c9,11,18,22.08,27.11,33.08a37.56,37.56,0,0,0,3.88,3.56c-28.49.05-57,.14-85.48.1-5.66,0-9.21-4.33-9.23-10.77Q0,325.25,0,301.33C.06,283,.16,264.72.23,246.42Z" transform="translate(0 -0.37)"/><path class="cls-3" d="M.9,140.88a2.06,2.06,0,0,1-.73-.14.45.45,0,0,1,0-.67Z" transform="translate(0 -0.37)"/><path d="M252.64,79.2c.22,9.74-2.08,18.5-10.73,24.26A25.7,25.7,0,0,1,202.18,86c-1.4-9.46-.64-18.61,5.57-26.42s17.55-10.7,28.19-7.41c9.47,2.93,15.81,11.17,16.68,21.77C252.76,75.65,252.64,77.43,252.64,79.2Zm-11.4,0a31.19,31.19,0,0,0-.91-8.32c-1.9-6.79-6.22-10.3-13.07-10.42C221,60.38,216.37,64,214.44,70.59a30.35,30.35,0,0,0,0,17.41c2.05,6.88,6.22,9.74,13.52,9.56,6.52-.16,10.43-3.38,12.31-10A30.07,30.07,0,0,0,241.24,79.24Z" transform="translate(0 -0.37)"/><path d="M197.62,105.65a6.27,6.27,0,0,1-.87.42c-10.66.83-10.67.83-15-8.77-1.27-2.82-2.7-5.59-3.73-8.5-.84-2.4-2.25-3-4.64-2.92-8.38.24-6.86-.91-7,7.07-.06,3.24-.13,6.5,0,9.74.13,2.7-.94,3.54-3.61,3.58-7.69.13-7.68.24-7.68-7.28,0-14,.18-28.06-.12-42.08-.08-4.11,1.22-5,5-4.75,7.34.55,14.77-.77,22.07.87,6.35,1.43,11.34,4.64,12.63,11.43s.63,13.08-5.61,17.41c-1.76,1.22-1.73,2.24-.87,4C191.36,92.32,194.39,98.86,197.62,105.65ZM166,68.83c.12,8.22-1.18,8,5.73,8,9.12,0,11.78-1.65,11.86-7.38.07-6-2.87-8-11.83-8C164.89,61.35,166.11,61.16,166,68.83Z" transform="translate(0 -0.37)"/><path d="M106.58,78.82c0-7.52.12-15-.06-22.57-.07-2.94.57-4.23,3.86-4.1,6.62.28,13.3-.24,19.9.29,6.86.56,13.11,2.93,15.64,10.28s.58,15.63-4.68,19.85C137,86,132,86.82,126.7,86.82c-8.86,0-8.86.05-8.86,9.07,0,1.48,0,3,0,4.43-.08,6.61.82,5.58-5.88,6-4.23.25-5.69-1-5.48-5.36C106.83,93.59,106.58,86.2,106.58,78.82Zm11.26-9.44c0,9.28,0,9.29,9.28,8.23A15.93,15.93,0,0,0,131,76.8a6.57,6.57,0,0,0,4.62-5.9c.59-6.39-1.84-9-9.11-9.53C117.84,60.73,117.84,60.73,117.84,69.38Z" transform="translate(0 -0.37)"/><path class="cls-3" d="M241.24,79.24a30.07,30.07,0,0,1-.94,8.33c-1.88,6.61-5.79,9.83-12.31,10-7.3.18-11.47-2.68-13.52-9.56a30.35,30.35,0,0,1,0-17.41C216.37,64,221,60.38,227.26,60.5c6.85.12,11.17,3.63,13.07,10.42A31.19,31.19,0,0,1,241.24,79.24Z" transform="translate(0 -0.37)"/><path class="cls-3" d="M166,68.83c.11-7.67-1.11-7.48,5.76-7.47,9,0,11.9,2,11.83,8-.08,5.73-2.74,7.4-11.86,7.38C164.82,76.78,166.12,77.05,166,68.83Z" transform="translate(0 -0.37)"/><path class="cls-3" d="M117.84,69.38c0-8.65,0-8.65,8.68-8,7.27.53,9.7,3.14,9.11,9.53A6.57,6.57,0,0,1,131,76.8a15.93,15.93,0,0,1-3.89.81C117.84,78.67,117.84,78.66,117.84,69.38Z" transform="translate(0 -0.37)"/></g></g></g></svg>