<svg xmlns="http://www.w3.org/2000/svg" viewBox="0 0 170.43 179"><defs><style>.cls-1{fill:#fff;}</style></defs><g id="Layer_2" data-name="Layer 2"><g id="Layer_1-2" data-name="Layer 1"><path class="cls-1" d="M158.81,44.17C143.14,16.6,111.71.1,74.74,0Q59.05,0,43.34,0H0V179H70.91c24.76,0,58.84-5.83,80.66-33.63C173.69,117.19,176.67,75.57,158.81,44.17Zm-115.36-20h57.18a63.54,63.54,0,0,1,23,7.11c18.8,10.11,25.2,22.45,27.26,31a43.81,43.81,0,0,1,1,12.6c-.39,11-3.79,19.59-6,25.3q-.48,1.2-.87,2.22a121.36,121.36,0,0,1-14.25,26.64c.37-.85.72-1.7,1.05-2.57a70.29,70.29,0,0,0,4.09-33.74,68.36,68.36,0,0,0-15-34.07,55,55,0,0,0-13.38-12.34A51.43,51.43,0,0,0,92,40.21c-5.91-1.5-10.59-2-28.36-2.05H59.89c-5.46,0-11,0-16.44.13Zm.5,17.6H65.38c3,0,5.91,0,8.87,0a63.69,63.69,0,0,1,22,3.39A47.77,47.77,0,0,1,113.6,55.78a43.69,43.69,0,0,1,10.67,17.63c.56,1.84,1,3.77,1.45,5.72.23,1.11.4,2.07.53,3l.09,1.07a74.46,74.46,0,0,1-.06,13.22c0,.23-.12.76-.32,2.25v.08c-.15.78-.31,1.57-.48,2.35a59.26,59.26,0,0,1-1.74,6.2c-.24.69-.48,1.38-.74,2l-.19.43c-.16.36-.35.81-.43,1a66.41,66.41,0,0,1-3.3,5.9,35.63,35.63,0,0,1-7.51,8.54,46.61,46.61,0,0,1-9.86,6.43c-7,3.5-16.84,5.55-27.09,5.63H44ZM148.2,145c-10.06,11.85-23.61,20.44-40.29,25.54-11.69,3.57-23.36,4.29-33.66,4.93a215.67,215.67,0,0,1-25.93.06c14.78-1.31,23.36-2.26,30.4-4.11,34.86-9.12,55.63-41.31,62.94-54.73,14.62-26.84,15.56-53.22,14-69.84a90.07,90.07,0,0,1,10.17,30.34C167.61,89.29,169.4,120.06,148.2,145Z"/></g></g></svg>